<?xml version="1.0" encoding="utf-8"?>
<!-- Generator: Adobe Illustrator 23.0.3, SVG Export Plug-In . SVG Version: 6.00 Build 0)  -->
<svg version="1.1" id="Layer_1" xmlns="http://www.w3.org/2000/svg" xmlns:xlink="http://www.w3.org/1999/xlink" x="0px" y="0px"
	 viewBox="0 0 512 512" style="enable-background:new 0 0 512 512;" xml:space="preserve">
<style type="text/css">
	.st0{fill:#21A374;}
	.st1{fill:#EDEAE4;}
	.st2{fill:none;}
	.st3{fill:#202D2C;}
	.st4{fill:#73EFBD;}
	.st5{fill:#F9D780;}
</style>
<path class="st0" d="M136.4,451.2c0,0,25.5,23.1,29.5,44.1s160.8,8.3,160.8,8.3s-5-23.2-19.3-24.3c-14.3-1.1-30.7-2.1-30.7-2.1
	v-51.1C276.7,426.2,151.3,415.3,136.4,451.2z"/>
<polyline class="st1" points="381.6,196.9 404.1,150 313.8,130.1 213.1,147.7 256.4,209.7 359.5,220.3 "/>
<path class="st2" d="M275.1,480.3v-60.6c0-25.3-20.7-46.5-46-46c-24.5,0.5-44.2,20.5-44.2,45.1c0,18.3-27.4,34.1-11.7,41.2
	c8,3.6,18.7,11.6,18.7,20.3h-21.1h53.9c0,12.9,10.5,23.4,23.4,23.4h26.9h51.5l0,0c0-12.9-10.5-23.4-23.4-23.4L275.1,480.3
	L275.1,480.3L275.1,480.3z"/>
<polyline class="st3" points="281.1,51.6 247,8.3 232.2,52.5 183.8,22.4 190.4,75.7 144,75.7 170,120.7 117,137.1 154.8,175.3 
	101.8,206.2 142.4,233.1 96.9,264.8 131.5,296.4 76.6,320.4 112.9,356.7 "/>
<path class="st4" d="M404.1,150H270.8c-9.1,0-16.6,7.3-16.7,16.4c-0.1,8.5,3.3,16.1,8.8,21.7c5.4,5.4,13,8.8,21.3,8.8h97.4
	c8.9,0,16.4,7.1,16.5,16c0.3,17.6-13.9,32-31.5,32h-65.7l12.4,90.8c4.6,34-9.5,65.7-34,85.4c-15.9,12.8-36.2,20.5-58.4,20.5h-10.2
	l-63.5,18.3L21,445.1c31.2-14.8,57.4-37,76.9-64.1c19.5-27.1,32.2-59.1,36.3-93.3c1.6-13.6,3.6-27.2,5.8-40.8
	c8.3-50.1,20.6-99.6,37-147.8c9.6-28.4,36.3-47.5,66.2-47.5h37.9c11.5,0,22.2,6.4,27.5,16.7c5.3,10.1,16,16.1,27.4,16.1h14.7
	c29.4,0,55.1,16.3,68.3,40.5C425.2,136.2,417,150,404.1,150z"/>
<path class="st0" d="M279.3,421.1c-15.9,12.8-36.2,20.5-58.4,20.5h-10.2l-63.5,18.3L21,445.1c31.2-14.8,57.4-37,76.9-64.1
	c19.5-27.1,32.2-59.1,36.3-93.3c1.6-13.6,3.6-27.2,5.8-40.8c8.3-50.1,20.6-99.6,37-147.8c9.6-28.4,36.3-47.5,66.2-47.5h17.8
	c0,0-46.8,38.6-60.9,139.4s7,209.1,75,228.7C276.6,420.1,278,420.6,279.3,421.1z"/>
<path class="st2" d="M210.7,480.3v-60.6c0-25.3-20.7-46.5-46-46c-24.5,0.5-44.2,20.5-44.2,45.1c0,18.3,11,34.1,26.7,41.2
	c8,3.6,13.1,11.6,13.1,20.3l0,0l0,0c0,12.9,10.5,23.4,23.4,23.4h26.9h51.5l0,0c0-12.9-10.5-23.4-23.4-23.4L210.7,480.3L210.7,480.3
	L210.7,480.3z"/>
<g>
	<path class="st2" d="M404.1,150h-22.4c9.5-35.8-31-65.6-31-65.6c29.4,0,55.1,16.3,68.3,40.5C425.2,136.2,417,150,404.1,150z"/>
	<path class="st2" d="M398.1,212.9c0.3,17.6-13.9,32-31.5,32h-11.9c22.3-22.3,8.2-48,8.2-48h18.6
		C390.5,196.9,397.9,203.9,398.1,212.9z"/>
</g>
<path class="st5" d="M483.7,193.1L483.7,193.1c9.7-9.7,9.7-25.5,0-35.3l0,0c-9.7-9.7-25.5-9.7-35.3,0l-17.6,17.6l17.6,17.6
	C458.2,202.8,474,202.8,483.7,193.1z"/>
<path d="M265.9,110.2V93.8c0-4.6-3.7-8.3-8.3-8.3s-8.3,3.7-8.3,8.3v16.4c0,4.6,3.7,8.3,8.3,8.3S265.9,114.8,265.9,110.2z"/>
<path d="M295.2,110.2V93.8c0-4.6-3.7-8.3-8.3-8.3s-8.3,3.7-8.3,8.3v16.4c0,4.6,3.7,8.3,8.3,8.3S295.2,114.8,295.2,110.2z"/>
<path d="M303.2,472h-19.8v-43.5c3.6-2.9,7.1-6,10.4-9.4c19.3-20,29.5-46.2,28.6-73.8c-0.1-4.6-4-8.2-8.6-8c-4.6,0.1-8.2,4-8,8.6
	c0.7,23.1-7.8,45-24,61.7c-16.1,16.7-37.8,25.8-61,25.8H219v-13.6c0-14.5-6-28.8-16.4-39c-10.3-10.1-23.8-15.5-38-15.3
	c-28.9,0.6-52.4,24.5-52.4,53.4c0,10.8,3.3,21.1,9.1,29.7l-73.7-8.6c13.5-8.6,25.9-18.8,37.2-30.3c3.2-3.3,3.1-8.6-0.2-11.8
	c-3.3-3.2-8.6-3.1-11.8,0.2c-16,16.5-34.7,29.8-55.4,39.7c-3.3,1.6-5.2,5.2-4.6,8.9c0.6,3.7,3.6,6.5,7.2,6.9L144.8,468
	c4.4,2.4,7.2,7.1,7.2,12.2c0,17.5,14.2,31.7,31.7,31.7h142.9c4.6,0,8.3-3.7,8.3-8.3c0-8.5-3.3-16.4-9.3-22.4
	C319.7,475.3,311.7,472,303.2,472z M183.8,495.4c-8.3,0-15.1-6.8-15.1-15.1c0-12-7.1-23-18.1-27.9c-13.2-5.9-21.8-19.1-21.8-33.6
	c0-19.9,16.2-36.4,36.1-36.8c0.2,0,0.5,0,0.7,0c9.4,0,18.4,3.7,25.4,10.5c7.3,7.1,11.4,17,11.4,27.1v60.6c0,4.6,3.7,8.3,8.3,8.3
	h28.1c5.3,0,9.9,2.7,12.6,6.8L183.8,495.4L183.8,495.4L183.8,495.4z M269.4,495.4c-3.7-13.5-16-23.4-30.6-23.4H219v-22h1.8
	c16.3,0,31.9-3.8,45.9-10.9v41.2c0,4.6,3.7,8.3,8.3,8.3h28.1c4,0,7.8,1.6,10.7,4.4c0.7,0.7,1.4,1.5,1.9,2.4H269.4z"/>
<path d="M259.3,310.6c1.3,0.8,2.7,1.1,4.1,1.1c2.9,0,5.7-1.5,7.2-4.2c5.3-9.2,11-28.1-1.3-40.5c-15-15-46.3,3.2-52.4,7
	c-3.9,2.4-5.1,7.5-2.7,11.4c2.4,3.9,7.5,5.1,11.4,2.7c11.8-7.3,28.3-13,31.9-9.4c6.4,6.4-1.3,20.3-1.3,20.4
	C253.9,303.3,255.3,308.3,259.3,310.6z"/>
<path d="M425.9,145.9c4.6-7.8,4.7-17.1,0.4-25c-15.1-27.6-44.1-44.8-75.6-44.8H336c-8.6,0-16.3-4.5-20-11.7
	c-6.2-11.8-17.7-19.5-30.7-20.9L253.6,3.2c-1.9-2.4-4.9-3.6-8-3c-3,0.5-5.5,2.7-6.5,5.6l-11.4,34.2l-39.5-24.6
	c-2.7-1.7-6.2-1.7-8.9,0.1c-2.7,1.7-4.2,4.9-3.8,8l5.5,44H144c-3,0-5.7,1.6-7.2,4.2s-1.5,5.7,0,8.3l20.8,36l-43,13.3
	c-2.8,0.9-4.9,3.1-5.6,5.9s0.1,5.8,2.2,7.9l30.2,30.5l-43.7,25.6c-2.5,1.4-4,4.1-4.1,6.9c-0.1,2.9,1.3,5.6,3.7,7.2l30.4,20.1
	L92.2,258c-2.1,1.4-3.4,3.8-3.5,6.3s0.8,5,2.7,6.7l25.2,23l-43.2,18.9c-2.5,1.1-4.3,3.4-4.8,6.1c-0.5,2.7,0.3,5.5,2.3,7.4l31.8,31.8
	c-3.5,6.2-7.3,12.2-11.5,18c-2.7,3.7-1.8,8.9,1.9,11.6c1.5,1.1,3.2,1.6,4.8,1.6c2.6,0,5.1-1.2,6.8-3.5
	c20.6-28.6,33.6-62.2,37.8-97.2c1.6-13.4,3.5-27,5.8-40.4c8.2-49.6,20.5-98.9,36.7-146.5c8.5-25,32-41.8,58.4-41.8h37.8
	c8.5,0,16.2,4.7,20.2,12.2c6.6,12.7,20,20.6,34.8,20.6h14.7c25.4,0,48.8,13.9,61,36.2c2.1,3.9,0.6,7.3-0.1,8.5
	c-0.8,1.3-3,4.3-7.5,4.3H270.8c-13.6,0-24.9,11-25.1,24.6c-0.1,10.4,3.9,20.3,11.3,27.6c7.3,7.3,16.9,11.3,27.2,11.3h97.4
	c4.5,0,8.2,3.5,8.2,7.8c0.1,6.3-2.3,12.2-6.6,16.6c-4.4,4.5-10.3,6.9-16.5,6.9c0,0-114.5,6.4-126.6-10c-1.9-2.6-3.4-4.5-3.4-7.5
	c0-4.6-3.7-8.3-8.3-8.3s-8.3,3.7-8.3,8.3c0,7.6,3,14.4,8.8,19.7c13.8,12.7,41.6,14.9,58.7,14.9c2.3,0,4.4,0,6.3-0.1l9,66
	c0.6,4.5,4.8,7.7,9.4,7.1c4.5-0.6,7.7-4.8,7.1-9.4l-4.4-31.8c11-5.9,23.9-9.7,27-6.6c6.4,6.4-1.3,20.3-1.3,20.4
	c-2.3,4-0.9,9.1,3.1,11.4c1.3,0.8,2.7,1.1,4.1,1.1c2.9,0,5.7-1.5,7.2-4.2c5.3-9.2,11-28.1-1.3-40.5c-10.5-10.5-28.9-4.8-41.2,0.9
	l-2-14.9h56.2c10.8,0,20.8-4.2,28.4-11.9c7.5-7.7,11.6-17.8,11.4-28.6c-0.2-9.1-5.4-17.1-13.1-21.2l16.2-33.8
	C416.4,156.2,422.2,152.1,425.9,145.9z M250,25.6l14,17.8h-19.9L250,25.6z M174.6,84.1c-2.1,3.9-4,8-5.4,12.4
	c-0.4,1.3-0.9,2.7-1.3,4l-9.5-16.4L174.6,84.1L174.6,84.1z M132.6,141l24.9-7.7c-2.5,8.5-4.9,17.1-7.1,25.7L132.6,141z M117.5,206.7
	l24.7-14.4c-2,9-3.9,18-5.7,27L117.5,206.7z M110.2,265.7l20.7-14.4c-1.6,9.8-3,19.7-4.2,29.5L110.2,265.7z M91.1,323.1l30.6-13.4
	c-2.8,11.2-6.6,22.2-11.3,32.7L91.1,323.1z M196.7,58.7l-2.5-20.1l18,11.2C206.7,52.2,201.5,55.2,196.7,58.7z M342.3,163.3
	l21.3,25.2h-40.2L342.3,163.3z M306.7,183.1l-19-24.8h37.6L306.7,183.1z M359.8,158.3h31l-11.2,23.4L359.8,158.3z M268.7,182.2
	c-4.2-4.2-6.5-9.8-6.4-15.7c0-3.3,2.1-6.1,4.9-7.4l22.6,29.5h-5.7C278.3,188.5,272.9,186.3,268.7,182.2z"/>
<path d="M489.6,151.9c-6.3-6.3-14.6-9.7-23.5-9.7s-17.2,3.5-23.5,9.7l-17.6,17.6c-3.2,3.2-3.2,8.5,0,11.8l17.6,17.6
	c6.3,6.3,14.6,9.7,23.5,9.7s17.2-3.5,23.5-9.7c6.3-6.3,9.7-14.6,9.7-23.5C499.3,166.6,495.9,158.2,489.6,151.9z M477.8,187.2
	L477.8,187.2c-3.1,3.1-7.3,4.9-11.8,4.9s-8.6-1.7-11.8-4.9l-11.8-11.8l11.8-11.8c3.1-3.1,7.3-4.9,11.8-4.9c4.4,0,8.6,1.7,11.8,4.9
	c3.1,3.1,4.9,7.3,4.9,11.8C482.7,179.9,481,184.1,477.8,187.2z"/>
</svg>
